# xmcd
#
# Track frame offsets: 
#        150
#        15456
#        31135
#        52329
#        64983
#        80534
#        94050
#        105450
#        118167
#        129605
#        143405
#        160702
#        173068
#        183963
#
# Disc length: 2650 seconds
#
# Revision: 0
# Processed by: cddbd v1.5.2PL0 Copyright (c) Steve Scherf et al.
# Submitted via: ExactAudioCopyFreeDBPlugin 1.0
#
DISCID=b30a580e
DTITLE=Edward David Anderson - Live And Solo
DYEAR=2020
DGENRE=Alt. Country
TTITLE0=Harmony
TTITLE1=200 Days
TTITLE2=Chasing Butterflies
TTITLE3=You Can't See Me
TTITLE4=Gonna Get Got
TTITLE5=Guy Built Guitars
TTITLE6=Dog Days
TTITLE7=Lost In Durango
TTITLE8=Sittin' 'Round At Home
TTITLE9=Son Of A Plumber
TTITLE10=Truck Stop Shower
TTITLE11=Ain't Got A Clue
TTITLE12=Goot To Be
TTITLE13=Southwind
EXTD=
EXTT0=
EXTT1=
EXTT2=
EXTT3=
EXTT4=
EXTT5=
EXTT6=
EXTT7=
EXTT8=
EXTT9=
EXTT10=
EXTT11=
EXTT12=
EXTT13=
PLAYORDER=
